<?xml version="1.0" encoding="utf-8"?>
<!-- Generator: Adobe Illustrator 23.0.3, SVG Export Plug-In . SVG Version: 6.00 Build 0)  -->
<svg version="1.1" id="Layer_1" xmlns="http://www.w3.org/2000/svg" xmlns:xlink="http://www.w3.org/1999/xlink" x="0px"
     y="0px"
     viewBox="0 0 2173.5 820.5" xml:space="preserve">
<path d="M267.4,140c0,0-125.6-5.3-149,23.4c0,0-27.7,54.3-28.7,101.1c0,0-9.6,56.4,28.7,76.6c0,0,27.7,28.7,106.4,27.7
	c0,0,78.7,4.3,110.7-18.1c0,0,26.6-7.5,26.6-56.4c0,0-5.3-104.3-29.8-130.9C332.3,163.5,319.5,139,267.4,140z M289.7,320.9
	c-24.5,0-55.3,6.4-55.3,6.4l-13.8,2.1l-13.8-2.1c-24.5,0-35.1-4.3-35.1-4.3c-26.6-3.2-35.1-14.9-35.1-14.9
	c-26.6-41.5,3.2-92.6,3.2-92.6c7.5-28.7,26.6-27.7,26.6-27.7c4.3-7.5,76.6-9.6,76.6-9.6c46.8-2.1,62.8,23.4,62.8,23.4
	c12.8,14.9,18.1,99,18.1,99C318.5,317.7,289.7,320.9,289.7,320.9z M557.9,458.2c0,0-13.8-164.9-42.6-222.4c0,0-24.5-78.7-83-76.6
	l-6.4-8.5c0,0-33-100-119.2-123.4c0,0-91.5-45.8-149-11.7c0,0-69.2,25.5-123.4,217.1c0,0-33,130.9-30.9,230.9c0,0-8.5,160.7,1.1,282
	l1.1,46.8c0,0,10.6,24.5,34,25.5l4.3-3.2l121.3,1.1c0,0,17,0,18.1-13.8v-16c0,0,3.2-4.3,1.1-27.7v-17c0,0,4.3-54.3,2.1-96.8
	c0,0,4.3-20.2,29.8-23.4c0,0,38.3-5.3,47.9,4.3c0,0,13.8,4.3,18.1,24.5l7.5,118.1c0,0-7.5,36.2,13.8,41.5c0,0,11.7,17,26.6,2.1
	l152.2,1.1c0,0,20.2,7.4,21.3-14.9l-4.3-34.1l-11.7-189.4C487.6,574.2,557.9,547.6,557.9,458.2z M455.7,763.6l-7.4,3.2l-101.1,1.1
	c-18.1-3.2-11.7-24.5-11.7-24.5l-2.1-43.6c-1.1-39.4-6.4-63.8-6.4-63.8l-3.2-30.9c-10.6-43.6-47.9-36.2-47.9-36.2
	c-60.7-8.5-108.5,18.1-108.5,18.1c-29.8,18.1-25.5,57.5-25.5,57.5c-6.4,16-1.1,30.9-1.1,30.9c-9.6,16-1.1,35.1-1.1,35.1l-1.1,43.6
	c-1.1,18.1-18.1,11.7-18.1,11.7l-63.8,1.1c-19.2,2.1-14.9-25.5-14.9-25.5l1.1-234.1C45,402.8,67.3,283.7,67.3,283.7
	c18.1-134.1,92.6-216,92.6-216C189.7,27.2,278,65.5,278,65.5c104.3,33,121.3,130.9,121.3,130.9c21.3,68.1,42.6,270.3,42.6,270.3
	c3.2,13.8,13.8,288.4,13.8,288.4L455.7,763.6L455.7,763.6z M484.4,517.8c0,0-13.5-173.8-21.3-215c0,0-17-85.8-22-91.5
	c0,0,5.7-12.1,16.3,3.5c0,0,40.4,57.5,51.8,168.1c0,0,7.8,68.1,7.8,89.4C517.1,472.4,502.2,533.4,484.4,517.8z"/>
  <path d="M557.9,792.3c0,0-6.4,19.2,8.5,25.5c0,0,24.5,7.4,35.1-5.3l4.3-22.3l7.4-55.3L665.3,405l34-227.7c0,0,5.3-14.9,9.6,2.1
	l56.4,297.9l44.7,285.2l10.6,42.6c0,0,4.3,11.7,21.3,11.7l14.9,1.1c0,0,6.4-1.1,12.8-16l20.2-154.3l30.9-239.4L958,167.7
	c0,0,4.3-36.2,10.6-18.1l14.9,142.6l26.6,212.8l19.2,191.5l14.9,107.5c0,0,1.1,12.8,21.3,16c0,0,17,4.3,22.3-10.6L1076.1,687
	l-42.6-356.5l-33-255.4l-5.3-43.6c0,0-11.7-27.7-34-26.6c0,0-20.2,0-24.5,35.1l-40.4,252.2L848.4,621l-2.1,28.7c0,0-4.3,36.2-9.6-16
	l-38.3-236.2l-55.3-266c0,0,1.1-73.4-23.4-95.8c0,0,0-36.2-35.1-21.3c0,0-9.6,14.9-10.6,33l-50,330.9l-58.5,355.4L557.9,792.3z"/>
  <g>
	<path d="M1369.8,205c0,0-24.5-135.1-77.7-178.8c0,0-55.3-46.8-101.1-10.6c0,0-52.1,54.3-58.5,167.1c0,0-13.8,197.9-8.5,238.4
		c0,0,1.1,213.9,38.3,305.4c0,0,14.9,84.1,93.6,92.6c0,0,47.9,5.3,74.5-79.8c0,0,39.4-141.5,46.8-273.5
		C1377.2,465.7,1384.7,263.5,1369.8,205z M1327.2,494.4c0,0-17,166-28.7,192.6c0,0-11.7,69.2-49,73.4c0,0-37.2,11.7-58.5-113.9
		c0,0-26.6-175.6-17-330.9c9.6-155.4,12.8-173.5,12.8-173.5s11.7-79.8,37.2-85.1c0,0,35.1-11.7,46.8,17c0,0,50,83,51.1,150
		C1321.9,224.1,1340,312.4,1327.2,494.4z"/>
</g>
  <path d="M1429.4,784.9c0,0-3.2,17,0,24.5c0,0-1.1,5.3,16,8.5c0,0,23.4,5.3,33-6.4l1.1-9.6c0,0-5.3-157.5-6.4-243.7
	c-1.1-86.2-1.1-340.5-1.1-340.5v-96.8c0,0,1.1-14.9,7.5,9.6l97.9,385.2l27.7,123.4l36.2,136.2c0,0,6.4,40.4,22.3,43.6l26.6-2.1
	c0,0,5.3,6.4,9.6-12.8l7.4-145.8c0,0,10.6-185.2,4.3-271.3c0,0-4.3-190.5-4.3-221.3c0,0,0-78.7,3.2-122.4c0,0,11.7-34-24.5-38.3
	c0,0-25.5-1.1-23.4,56.4v121.3l6.4,103.2l1.1,92.6l-2.1,273.5c0,0-7.4,40.4-14.9-12.8L1613.4,471l-54.3-230.9L1504.9,56
	c0,0-9.6-53.2-49-44.7c0,0-26.6,0-29.8,38.3v195.8v277.7l2.1,134.1c0,0-3.2,67,1.1,83L1429.4,784.9L1429.4,784.9z"/>
  <path d="M1972,19.8c0,0,23.4,22.3-3.2,46.8c0,0,4.3,5.3-41.5-6.4c0,0-41.5-13.8-64.9,25.5c0,0-51.1,75.5-56.4,197.9
	c0,0-11.7,144.7-3.2,243.7c0,0,1.1,143.7,37.2,199c0,0,20.2,52.1,90.4,19.2c0,0,29.8,1.1,42.6-160.7l1.1-105.3c0,0-2.1-16,22.3-22.3
	l95.8-1.1c0,0,37.2-2.1,20.2,40.4c0,0-5.3,10.6-41.5,18.1l-48.9,1.1c0,0,4.3,158.6-24.5,223.5c0,0-29.8,74.5-99,80.9
	c0,0-80.9,0-107.5-81.9c0,0-37.2-78.7-35.1-237.3c0,0-3.2-177.7,10.6-284.1c0,0,12.8-105.3,60.7-170.2c0,0,22.3-47.9,101.1-41.5
	C1928.4,4.9,1962.5,7,1972,19.8z"/>
</svg>
