<svg id="Слой_1" data-name="Слой 1" xmlns="http://www.w3.org/2000/svg" viewBox="0 0 353.16 70.28"><defs><style>.cls-1,.cls-2{fill:#0288D1;stroke-miterlimit:10;}.cls-1{stroke-width:0.25px;}</style></defs><path class="cls-1" d="M28.71,3.34c-3.63-.69-6.61-.14-10,.55C-1.45,7.94.5,45,.3,51.08c0,1.49,11.75,2.18,12.77,1.32,3.23-2.75,2.16-12.93,8.47-15.77a2.36,2.36,0,0,1,1.21-.28c4.38.28,4.86,15.83,6.24,15.92,12.93.85,14.77.84,14.58-.13-.34-1.72-.12-6.87-.23-13.22l-1.89-19C39.58,11.65,35.91,4.71,28.71,3.34ZM21.57,26.66c-3.28-.17-6-2.57-5.67-5.3.27-2.58,3.1-4.51,6.18-4.45S28,19.14,28,21.79,24.94,26.83,21.57,26.66Z" transform="translate(-0.18 -2.29)"/><path class="cls-1" d="M49.64,29.4c-1.32-5-1.34-11-8.19-9.49,0,6.16,1.79,13.12,1.89,19C48.31,40.56,51.86,36.68,49.64,29.4Z" transform="translate(-0.18 -2.29)"/><path class="cls-2" d="M-21.92,46.69" transform="translate(-0.18 -2.29)"/><path class="cls-1" d="M53.23,52.33c-1.16-2.89-1-23.28.73-26.44,1-1.75,7.42-2.17,9.2-.83,1.45,1.1-.37,3.11.88,3.85,2.5,1.5,2.51-.83,10-1.66,1.5-.17,4.34.52,5.07,1.8,1.1,1.93,6.24-1.83,10.23-1.28,6.13.83,1.86,24.89-.73,24.89-1.46,0-3.95.17-5.41-.7s1.46-14,.15-16.59c-.88-1.75-5.23-1.58-6.53-.23-1.07,1.11-.33,16-1.81,17.2-.86.67-4.7.56-5.82-.38s1.31-13.5.29-16.7C68.71,33,63.6,33.08,63,34.53c-.93,2.32-1.46,12.74-1.31,17.84A29.34,29.34,0,0,1,53.23,52.33Z" transform="translate(-0.18 -2.29)"/><path class="cls-1" d="M110.71,25.84C102,25.21,94.51,32,93.58,38.28c-1,6.87,5.59,14.92,14.43,15.18,8.63.26,15.83-7,16.18-13.58C124.5,33.9,119.24,26.45,110.71,25.84Zm-3,19.39a6,6,0,0,1-5.4-5.37A6,6,0,0,1,107.87,34c3.72-.34,7.12,2.37,7.46,5C115.73,42.31,111.56,45.61,107.72,45.23Z" transform="translate(-0.18 -2.29)"/><path class="cls-1" d="M153.09,52c-1.74.65-6.07.69-8.44.41-1.85-.23,1.58-12.45-.21-17.41-.83-2.29-6.61-2.18-7.28-.73-1,2.33-1.65,12.75-1.49,17.85a37.57,37.57,0,0,1-9.59,0c-1.31-2.89-1.16-23.29.83-26.45,1.1-1.75,8.4-2.18,10.42-.83,1.65,1.1-.42,3.11,1,3.85,2.05,1.08,2.63.17,6-.74a18.94,18.94,0,0,1,5.34-.93c2.77,0,4,1,4.31,1.81C155.45,32.37,154.69,51.36,153.09,52Z" transform="translate(-0.18 -2.29)"/><path class="cls-1" d="M170.54,52.61" transform="translate(-0.18 -2.29)"/><path class="cls-1" d="M184.61,25c-.44-.72-7.2-.72-8.62,0s.81,3.44.1,3.95c-1.27.9-5.74-4.19-12.94-3-4.91.8-6.42,6.93-6.61,10.92-.38,7.63.68,18,12.49,16.78,5.59-.6,6.5-6.14,7.67-5.39s-.12,15-6.37,17.1c-4.05,1.39-3.49-2.84-8.35-.86-2,.82-3.42,2.61-3.09,4.07.74,3.37,8.08,5,14.55,3,6.7-2.08,12.3-8.27,12.79-23.88C186.77,30.67,185.87,27,184.61,25Zm-16.56,19.9a5.63,5.63,0,0,1-5-5,5.55,5.55,0,0,1,5.14-5.46c3.45-.33,6.61,2.22,6.91,4.71C175.48,42.15,171.61,45.24,168.05,44.88Z" transform="translate(-0.18 -2.29)"/><path class="cls-1" d="M229.21,4.07c-6-1.28-14,2.54-16.59,2.1-1.71-.29-.15-1.95-1.53-2.73-2.88-1.63-11.91-.93-12.09-.54-1.87,4.08-2.38,48,1.36,48.78,3.22.66,9.87.93,12.43,0,2.91-1.1-.34-16-.51-19.27-.21-3.94,9.74.28,18.05-1.66,7-1.64,10.38-4.88,10.37-12.82C240.7,10.42,237,5.75,229.21,4.07ZM222.42,21.6c-3.28-.18-5.95-2.65-5.67-5.46.27-2.65,3.1-4.64,6.18-4.58s5.92,2.3,5.92,5C228.85,19.46,225.79,21.78,222.42,21.6Z" transform="translate(-0.18 -2.29)"/><path class="cls-1" d="M263.26,24.78c-1.51-1.92-6.58-.91-8.32,0-1.25.68.79,3.4.1,3.91-1.22.89-5.53-4.15-12.48-3-4.73.79-6.19,6.85-6.37,10.8-.36,7.54.66,17.83,12,16.58,5.07-.55,6.15-5.44,7.2-5.4a.57.57,0,0,1,.2.07c1.4.64-.52,3.28.49,4.37s8.73,2.07,8.85-.59C265.05,49.71,265.9,28.15,263.26,24.78Zm-13.5,19.31a5.51,5.51,0,0,1-4.82-5,5.45,5.45,0,0,1,5-5.4c3.32-.32,6.37,2.2,6.66,4.66C256.93,41.39,253.19,44.45,249.76,44.09Z" transform="translate(-0.18 -2.29)"/><path class="cls-1" d="M294.35,26.48c.4.23.47,6.09-1.64,6.28a41.57,41.57,0,0,0-7.79-1c-5.23-.24-7.47,2.67-7.93,4.72-.63,2.82-.49,14.16-1,16.39.24-1-6.67.24-8.92-.21-1.12-3,.34-24.89.47-28,1-1.81,7.53-1.46,9.15-.57s-.83,3.22.71,3.66,3.08-1.1,5-2a20.25,20.25,0,0,1,6.77-1.22c.78,0,1.82,0,5.21,1.93" transform="translate(-0.18 -2.29)"/><path class="cls-1" d="M303.51,6.27c-1.75,1.22.41,15.91-.88,17.43s-5.06.28-5.88,1c-1.32,1.24-.27,4.1-.27,5.6,0,2.2,4.72-.62,5.94,1,.91,1.18-3.27,16.62.43,19.76,4.28,3.62,13.52,2.17,13.95,2.09,3.29-.62,9-1.22,10-3,.87-1.55-.92-5.46-3.71-5.49-4,0-8.18,3.16-11.55,1-1.93-1.2-1-13.17,0-14.28,1.93-2.16,4.27,1.46,6.76-.16,0,0,1.19-4.09,0-6.09-.44-.72-7.64,1.57-7.2-.72S313.3,8,312,6.27C311.52,5.61,305.65,4.77,303.51,6.27Z" transform="translate(-0.18 -2.29)"/><path class="cls-1" d="M348.6,24.67c-1.29-1.5-11.61-2.26-16.22-.64-2.57.9-5.1,3.41-5.31,6.18-.17,2.19.5,5,5.19,7.16,5.15,2.38,14,3.24,12.72,6.84-2.11,6-15.73-1.23-16.27,1.64-.26,1.44,0,4.63,1.1,5.43,2.87,2.19,22.82,1.51,23.38-6.91.61-9.17-14.18-7.28-17.69-12.45-.72-1.05.39-2.83,1.57-3.31,1.72-.72,9.76,1.13,11.38.42C349.44,28.6,349.36,25.56,348.6,24.67Z" transform="translate(-0.18 -2.29)"/></svg>
